<?xml version="1.0" encoding="UTF-8"?>
<!DOCTYPE svg PUBLIC "-//W3C//DTD SVG 1.1//EN" "http://www.w3.org/Graphics/SVG/1.1/DTD/svg11.dtd">
<svg xmlns="http://www.w3.org/2000/svg" version="1.1" width="50px" height="50px" style="shape-rendering:geometricPrecision; text-rendering:geometricPrecision; image-rendering:optimizeQuality; fill-rule:evenodd; clip-rule:evenodd" xmlns:xlink="http://www.w3.org/1999/xlink">
<g><path style="opacity:0.979" fill="#cad9e9" d="M 39.5,36.5 C 38.6618,36.8417 38.3284,37.5084 38.5,38.5C 29.6586,44.9147 20.6586,45.0813 11.5,39C 10.035,37.2258 8.70166,35.3925 7.5,33.5C 8.98952,31.0517 8.32285,29.3851 5.5,28.5C 5.15025,23.9639 5.81691,19.6306 7.5,15.5C 7.5,15.1667 7.5,14.8333 7.5,14.5C 16.0913,4.40313 26.0913,2.90313 37.5,10C 44.6222,18.382 45.2889,27.2154 39.5,36.5 Z"/></g>
<g><path style="opacity:1" fill="#f0bb19" d="M 39.5,4.5 C 43.1612,4.35012 44.1612,5.85012 42.5,9C 39.8882,9.74137 38.2215,8.74137 37.5,6C 38.4158,5.72158 39.0825,5.22158 39.5,4.5 Z"/></g>
<g><path style="opacity:0.555" fill="#779fcf" d="M 41.5,10.5 C 42.675,10.281 43.675,10.6143 44.5,11.5C 42.9483,12.7979 41.9483,12.4646 41.5,10.5 Z"/></g>
<g><path style="opacity:0.555" fill="#759ed0" d="M 7.5,14.5 C 7.5,14.8333 7.5,15.1667 7.5,15.5C 6.5,15.5 5.5,15.5 4.5,15.5C 4.5,14.5 4.5,13.5 4.5,12.5C 6.17876,12.2852 7.17876,12.9519 7.5,14.5 Z"/></g>
<g><path style="opacity:1" fill="#f1db4f" d="M 28.5,17.5 C 30.3216,19.2343 32.6549,20.2343 35.5,20.5C 36.2975,20.9569 36.6309,21.6236 36.5,22.5C 35.1667,23.1667 34.1667,24.1667 33.5,25.5C 32.3065,25.9704 31.6399,26.9704 31.5,28.5C 31.5195,29.7261 31.8529,30.7261 32.5,31.5C 32.7678,33.099 32.4345,34.4324 31.5,35.5C 29.3924,33.9409 27.0591,32.6076 24.5,31.5C 22.3295,33.0862 19.9962,34.4196 17.5,35.5C 17.4487,32.3349 17.282,29.0016 17,25.5C 15.6288,23.9586 14.1288,22.6253 12.5,21.5C 13.1667,20.8333 13.8333,20.1667 14.5,19.5C 16.5273,19.6621 18.5273,19.4955 20.5,19C 21.8742,16.4171 23.3742,13.9171 25,11.5C 25.941,13.7274 27.1077,15.7274 28.5,17.5 Z"/></g>
<g><path style="opacity:1" fill="#9e958a" d="M 28.5,17.5 C 31.0795,18.2276 33.7462,18.7276 36.5,19C 37.7911,20.2917 37.7911,21.4583 36.5,22.5C 36.6309,21.6236 36.2975,20.9569 35.5,20.5C 32.6549,20.2343 30.3216,19.2343 28.5,17.5 Z"/></g>
<g><path style="opacity:1" fill="#7b654a" d="M 14.5,19.5 C 13.8333,20.1667 13.1667,20.8333 12.5,21.5C 11.9569,21.44 11.6236,21.1067 11.5,20.5C 12.325,19.6143 13.325,19.281 14.5,19.5 Z"/></g>
<g><path style="opacity:0.838" fill="#facc59" d="M 5.5,28.5 C 8.32285,29.3851 8.98952,31.0517 7.5,33.5C 4.49693,32.83 3.83026,31.1633 5.5,28.5 Z"/></g>
<g><path style="opacity:1" fill="#806d54" d="M 33.5,25.5 C 32.6586,27.3792 32.3253,29.3792 32.5,31.5C 31.8529,30.7261 31.5195,29.7261 31.5,28.5C 31.6399,26.9704 32.3065,25.9704 33.5,25.5 Z"/></g>
<g><path style="opacity:1" fill="#84776d" d="M 32.5,31.5 C 33.7879,33.0348 33.7879,34.7015 32.5,36.5C 31.8933,36.3764 31.56,36.0431 31.5,35.5C 32.4345,34.4324 32.7678,33.099 32.5,31.5 Z"/></g>
<g><path style="opacity:0.511" fill="#facc58" d="M 39.5,36.5 C 40.3764,36.3691 41.0431,36.7025 41.5,37.5C 40.675,38.3857 39.675,38.719 38.5,38.5C 38.3284,37.5084 38.6618,36.8417 39.5,36.5 Z"/></g>
<g><path style="opacity:0.555" fill="#759ed0" d="M 10.5,41.5 C 11.5,41.5 12.5,41.5 13.5,41.5C 13.5,42.5 13.5,43.5 13.5,44.5C 12.5,44.5 11.5,44.5 10.5,44.5C 10.5,43.5 10.5,42.5 10.5,41.5 Z"/></g>
</svg>
